<svg width="24" height="24" viewBox="0 0 24 24" fill="none" xmlns="http://www.w3.org/2000/svg">
<path d="M16 20C15.7167 20 15.4792 19.9042 15.2875 19.7125C15.0958 19.5208 15 19.2833 15 19V14C15 13.7167 15.0958 13.4792 15.2875 13.2875C15.4792 13.0958 15.7167 13 16 13H21C21.2833 13 21.5208 13.0958 21.7125 13.2875C21.9042 13.4792 22 13.7167 22 14V19C22 19.2833 21.9042 19.5208 21.7125 19.7125C21.5208 19.9042 21.2833 20 21 20H16ZM12 11C11.7167 11 11.4792 10.9042 11.2875 10.7125C11.0958 10.5208 11 10.2833 11 10V5C11 4.71667 11.0958 4.47917 11.2875 4.2875C11.4792 4.09583 11.7167 4 12 4H21C21.2833 4 21.5208 4.09583 21.7125 4.2875C21.9042 4.47917 22 4.71667 22 5V10C22 10.2833 21.9042 10.5208 21.7125 10.7125C21.5208 10.9042 21.2833 11 21 11H12ZM3 20C2.71667 20 2.47917 19.9042 2.2875 19.7125C2.09583 19.5208 2 19.2833 2 19V14C2 13.7167 2.09583 13.4792 2.2875 13.2875C2.47917 13.0958 2.71667 13 3 13H12C12.2833 13 12.5208 13.0958 12.7125 13.2875C12.9042 13.4792 13 13.7167 13 14V19C13 19.2833 12.9042 19.5208 12.7125 19.7125C12.5208 19.9042 12.2833 20 12 20H3ZM3 11C2.71667 11 2.47917 10.9042 2.2875 10.7125C2.09583 10.5208 2 10.2833 2 10V5C2 4.71667 2.09583 4.47917 2.2875 4.2875C2.47917 4.09583 2.71667 4 3 4H8C8.28333 4 8.52083 4.09583 8.7125 4.2875C8.90417 4.47917 9 4.71667 9 5V10C9 10.2833 8.90417 10.5208 8.7125 10.7125C8.52083 10.9042 8.28333 11 8 11H3ZM13 9H20V6H13V9ZM4 18H11V15H4V18ZM17 18H20V15H17V18ZM4 9H7V6H4V9Z" fill="#A4A7AE"/>
</svg>
