<svg width="20" height="20" viewBox="0 0 20 20" fill="none" xmlns="http://www.w3.org/2000/svg">
<path opacity="0.99" d="M8.59369 13.4114C8.48425 13.4115 8.37585 13.39 8.27474 13.3481C8.17363 13.3062 8.0818 13.2447 8.00453 13.1672L5.66078 10.8235C5.50614 10.6669 5.41973 10.4555 5.42041 10.2354C5.4211 10.0153 5.50883 9.80447 5.66445 9.64885C5.82007 9.49322 6.03093 9.40549 6.25101 9.40479C6.47109 9.40409 6.68251 9.49049 6.83911 9.64513L8.59367 11.3997L13.1608 6.83263C13.3174 6.67799 13.5288 6.59159 13.7489 6.59229C13.969 6.59299 14.1798 6.68072 14.3354 6.83635C14.4911 6.99197 14.5788 7.20284 14.5795 7.42292C14.5802 7.643 14.4938 7.85442 14.3391 8.01101L9.18286 13.1673C9.10558 13.2448 9.01375 13.3062 8.91264 13.3481C8.81153 13.39 8.70314 13.4115 8.59369 13.4114Z" fill="#F5FAFF"/>
<path d="M10.0001 1.6665C8.35191 1.6665 6.74074 2.15525 5.37033 3.07092C3.99992 3.9866 2.93182 5.28809 2.30109 6.81081C1.67036 8.33353 1.50533 10.0091 1.82687 11.6256C2.14842 13.2421 2.94209 14.727 4.10753 15.8924C5.27297 17.0578 6.75782 17.8515 8.37433 18.173C9.99084 18.4946 11.6664 18.3296 13.1891 17.6988C14.7118 17.0681 16.0133 16 16.929 14.6296C17.8447 13.2592 18.3334 11.648 18.3334 9.99984C18.3309 7.79048 17.4521 5.67233 15.8898 4.11007C14.3276 2.54782 12.2094 1.66903 10.0001 1.6665V1.6665ZM14.3393 8.0109L9.183 13.1672C9.10564 13.2446 9.01379 13.306 8.9127 13.3478C8.8116 13.3897 8.70324 13.4113 8.59381 13.4113C8.48438 13.4113 8.37602 13.3897 8.27492 13.3478C8.17383 13.306 8.08198 13.2446 8.00462 13.1672L5.66092 10.8234C5.50628 10.6668 5.41987 10.4554 5.42056 10.2353C5.42124 10.0152 5.50897 9.80437 5.66459 9.64874C5.82021 9.49312 6.03107 9.40538 6.25115 9.40468C6.47123 9.40399 6.68265 9.49039 6.83925 9.64502L8.59381 11.3996L13.1609 6.83252C13.3175 6.67789 13.5289 6.59149 13.749 6.59218C13.9691 6.59288 14.18 6.68062 14.3356 6.83624C14.4912 6.99187 14.5789 7.20274 14.5796 7.42282C14.5803 7.6429 14.4939 7.85431 14.3393 8.0109Z" fill="#1570EF"/>
</svg>
