<svg width="26" height="26" viewBox="0 0 26 26" fill="none" xmlns="http://www.w3.org/2000/svg">
<rect x="1" y="1" width="24" height="24" rx="12" fill="#F79009"/>
<rect x="1" y="1" width="24" height="24" rx="12" stroke="#DC6803" stroke-width="2"/>
<g clip-path="url(#clip0_722_2817)">
<path d="M12.9999 11.0001V13.0001M12.9999 15.0001H13.0049M12.1449 8.4301L7.90989 15.5001C7.82257 15.6513 7.77637 15.8228 7.77588 15.9974C7.77539 16.172 7.82063 16.3437 7.9071 16.4954C7.99357 16.6471 8.11825 16.7735 8.26874 16.862C8.41923 16.9506 8.59029 16.9982 8.76489 17.0001H17.2349C17.4095 16.9982 17.5805 16.9506 17.731 16.862C17.8815 16.7735 18.0062 16.6471 18.0927 16.4954C18.1791 16.3437 18.2244 16.172 18.2239 15.9974C18.2234 15.8228 18.1772 15.6513 18.0899 15.5001L13.8549 8.4301C13.7658 8.28316 13.6402 8.16166 13.4905 8.07734C13.3407 7.99303 13.1718 7.94873 12.9999 7.94873C12.828 7.94873 12.6591 7.99303 12.5093 8.07734C12.3595 8.16166 12.234 8.28316 12.1449 8.4301Z" stroke="white" stroke-linecap="round" stroke-linejoin="round"/>
</g>
<defs>
<clipPath id="clip0_722_2817">
<rect width="12" height="12" fill="white" transform="translate(7 7)"/>
</clipPath>
</defs>
</svg>
