<svg width="32" height="32" viewBox="0 0 32 32" fill="none" xmlns="http://www.w3.org/2000/svg">
<rect width="32" height="32" rx="16" fill="#FEF0C7"/>
<path d="M15.9998 13.3331V15.9998M15.9998 18.6665H16.0064M14.8598 9.90648L9.2131 19.3331C9.09668 19.5348 9.03508 19.7633 9.03443 19.9962C9.03378 20.229 9.0941 20.4579 9.20939 20.6602C9.32468 20.8624 9.49092 21.031 9.69157 21.149C9.89223 21.2671 10.1203 21.3306 10.3531 21.3331H21.6464C21.8792 21.3306 22.1073 21.2671 22.308 21.149C22.5086 21.031 22.6749 20.8624 22.7902 20.6602C22.9054 20.4579 22.9658 20.229 22.9651 19.9962C22.9645 19.7633 22.9029 19.5348 22.7864 19.3331L17.1398 9.90648C17.0209 9.71055 16.8536 9.54856 16.6539 9.43613C16.4542 9.32371 16.2289 9.26465 15.9998 9.26465C15.7706 9.26465 15.5453 9.32371 15.3456 9.43613C15.146 9.54856 14.9786 9.71055 14.8598 9.90648Z" stroke="#DC6803" stroke-width="1.33333" stroke-linecap="round" stroke-linejoin="round"/>
</svg>
