<svg width="20" height="20" viewBox="0 0 20 20" fill="none" xmlns="http://www.w3.org/2000/svg">
<path d="M8.33341 15.8333V14.1667H3.33341C2.87508 14.1667 2.48272 14.0035 2.15633 13.6771C1.82994 13.3507 1.66675 12.9583 1.66675 12.5V4.16667C1.66675 3.70833 1.82994 3.31597 2.15633 2.98958C2.48272 2.66319 2.87508 2.5 3.33341 2.5H16.6667C17.1251 2.5 17.5174 2.66319 17.8438 2.98958C18.1702 3.31597 18.3334 3.70833 18.3334 4.16667V12.5C18.3334 12.9583 18.1702 13.3507 17.8438 13.6771C17.5174 14.0035 17.1251 14.1667 16.6667 14.1667H11.6667V15.8333H12.5001C12.7362 15.8333 12.9341 15.9132 13.0938 16.0729C13.2536 16.2326 13.3334 16.4306 13.3334 16.6667C13.3334 16.9028 13.2536 17.1007 13.0938 17.2604C12.9341 17.4201 12.7362 17.5 12.5001 17.5H7.50008C7.26397 17.5 7.06605 17.4201 6.90633 17.2604C6.74661 17.1007 6.66675 16.9028 6.66675 16.6667C6.66675 16.4306 6.74661 16.2326 6.90633 16.0729C7.06605 15.9132 7.26397 15.8333 7.50008 15.8333H8.33341ZM3.33341 12.5H16.6667V4.16667H3.33341V12.5Z" fill="#A4A7AE"/>
</svg>
