<svg width="24" height="24" viewBox="0 0 24 24" fill="none" xmlns="http://www.w3.org/2000/svg">
<path d="M10.825 22C10.375 22 9.98748 21.85 9.66248 21.55C9.33748 21.25 9.14165 20.8833 9.07498 20.45L8.84998 18.8C8.63331 18.7167 8.42915 18.6167 8.23748 18.5C8.04581 18.3833 7.85831 18.2583 7.67498 18.125L6.12498 18.775C5.70831 18.9583 5.29165 18.975 4.87498 18.825C4.45831 18.675 4.13331 18.4083 3.89998 18.025L2.72498 15.975C2.49165 15.5917 2.42498 15.1833 2.52498 14.75C2.62498 14.3167 2.84998 13.9583 3.19998 13.675L4.52498 12.675C4.50831 12.5583 4.49998 12.4458 4.49998 12.3375V11.6625C4.49998 11.5542 4.50831 11.4417 4.52498 11.325L3.19998 10.325C2.84998 10.0417 2.62498 9.68333 2.52498 9.25C2.42498 8.81667 2.49165 8.40833 2.72498 8.025L3.89998 5.975C4.13331 5.59167 4.45831 5.325 4.87498 5.175C5.29165 5.025 5.70831 5.04167 6.12498 5.225L7.67498 5.875C7.85831 5.74167 8.04998 5.61667 8.24998 5.5C8.44998 5.38333 8.64998 5.28333 8.84998 5.2L9.07498 3.55C9.14165 3.11667 9.33748 2.75 9.66248 2.45C9.98748 2.15 10.375 2 10.825 2H13.175C13.625 2 14.0125 2.15 14.3375 2.45C14.6625 2.75 14.8583 3.11667 14.925 3.55L15.15 5.2C15.3666 5.28333 15.5708 5.38333 15.7625 5.5C15.9541 5.61667 16.1416 5.74167 16.325 5.875L17.875 5.225C18.2916 5.04167 18.7083 5.025 19.125 5.175C19.5416 5.325 19.8666 5.59167 20.1 5.975L21.275 8.025C21.5083 8.40833 21.575 8.81667 21.475 9.25C21.375 9.68333 21.15 10.0417 20.8 10.325L19.475 11.325C19.4916 11.4417 19.5 11.5542 19.5 11.6625V12.3375C19.5 12.4458 19.4833 12.5583 19.45 12.675L20.775 13.675C21.125 13.9583 21.35 14.3167 21.45 14.75C21.55 15.1833 21.4833 15.5917 21.25 15.975L20.05 18.025C19.8166 18.4083 19.4916 18.675 19.075 18.825C18.6583 18.975 18.2416 18.9583 17.825 18.775L16.325 18.125C16.1416 18.2583 15.95 18.3833 15.75 18.5C15.55 18.6167 15.35 18.7167 15.15 18.8L14.925 20.45C14.8583 20.8833 14.6625 21.25 14.3375 21.55C14.0125 21.85 13.625 22 13.175 22H10.825ZM11 20H12.975L13.325 17.35C13.8416 17.2167 14.3208 17.0208 14.7625 16.7625C15.2041 16.5042 15.6083 16.1917 15.975 15.825L18.45 16.85L19.425 15.15L17.275 13.525C17.3583 13.2917 17.4166 13.0458 17.45 12.7875C17.4833 12.5292 17.5 12.2667 17.5 12C17.5 11.7333 17.4833 11.4708 17.45 11.2125C17.4166 10.9542 17.3583 10.7083 17.275 10.475L19.425 8.85L18.45 7.15L15.975 8.2C15.6083 7.81667 15.2041 7.49583 14.7625 7.2375C14.3208 6.97917 13.8416 6.78333 13.325 6.65L13 4H11.025L10.675 6.65C10.1583 6.78333 9.67915 6.97917 9.23748 7.2375C8.79581 7.49583 8.39165 7.80833 8.02498 8.175L5.54998 7.15L4.57498 8.85L6.72498 10.45C6.64165 10.7 6.58331 10.95 6.54998 11.2C6.51665 11.45 6.49998 11.7167 6.49998 12C6.49998 12.2667 6.51665 12.525 6.54998 12.775C6.58331 13.025 6.64165 13.275 6.72498 13.525L4.57498 15.15L5.54998 16.85L8.02498 15.8C8.39165 16.1833 8.79581 16.5042 9.23748 16.7625C9.67915 17.0208 10.1583 17.2167 10.675 17.35L11 20ZM12.05 15.5C13.0166 15.5 13.8416 15.1583 14.525 14.475C15.2083 13.7917 15.55 12.9667 15.55 12C15.55 11.0333 15.2083 10.2083 14.525 9.525C13.8416 8.84167 13.0166 8.5 12.05 8.5C11.0666 8.5 10.2375 8.84167 9.56248 9.525C8.88748 10.2083 8.54998 11.0333 8.54998 12C8.54998 12.9667 8.88748 13.7917 9.56248 14.475C10.2375 15.1583 11.0666 15.5 12.05 15.5Z" fill="#A4A7AE"/>
</svg>
