<svg width="20" height="20" viewBox="0 0 20 20" fill="none" xmlns="http://www.w3.org/2000/svg">
<path d="M5.83341 19.1668C5.37508 19.1668 4.98272 19.0036 4.65633 18.6772C4.32994 18.3509 4.16675 17.9585 4.16675 17.5002V2.50016C4.16675 2.04183 4.32994 1.64947 4.65633 1.32308C4.98272 0.996691 5.37508 0.833496 5.83341 0.833496H14.1667C14.6251 0.833496 15.0174 0.996691 15.3438 1.32308C15.6702 1.64947 15.8334 2.04183 15.8334 2.50016V5.0835C16.0834 5.18072 16.2848 5.3335 16.4376 5.54183C16.5904 5.75016 16.6667 5.98627 16.6667 6.25016V7.91683C16.6667 8.18072 16.5904 8.41683 16.4376 8.62516C16.2848 8.8335 16.0834 8.98627 15.8334 9.0835V17.5002C15.8334 17.9585 15.6702 18.3509 15.3438 18.6772C15.0174 19.0036 14.6251 19.1668 14.1667 19.1668H5.83341ZM5.83341 17.5002H14.1667V2.50016H5.83341V17.5002ZM10.5938 4.76058C10.7536 4.60086 10.8334 4.40294 10.8334 4.16683C10.8334 3.93072 10.7536 3.7328 10.5938 3.57308C10.4341 3.41336 10.2362 3.3335 10.0001 3.3335C9.76397 3.3335 9.56605 3.41336 9.40633 3.57308C9.24661 3.7328 9.16675 3.93072 9.16675 4.16683C9.16675 4.40294 9.24661 4.60086 9.40633 4.76058C9.56605 4.9203 9.76397 5.00016 10.0001 5.00016C10.2362 5.00016 10.4341 4.9203 10.5938 4.76058Z" fill="#A4A7AE"/>
</svg>
