<svg width="24" height="24" viewBox="0 0 24 24" fill="none" xmlns="http://www.w3.org/2000/svg">
<path d="M16 20C15.7167 20 15.4792 19.9042 15.2875 19.7125C15.0958 19.5208 15 19.2833 15 19C15 18.7167 15.0958 18.4792 15.2875 18.2875C15.4792 18.0958 15.7167 18 16 18H18V6H16C15.7167 6 15.4792 5.90417 15.2875 5.7125C15.0958 5.52083 15 5.28333 15 5C15 4.71667 15.0958 4.47917 15.2875 4.2875C15.4792 4.09583 15.7167 4 16 4H18C18.55 4 19.0208 4.19583 19.4125 4.5875C19.8042 4.97917 20 5.45 20 6V18C20 18.55 19.8042 19.0208 19.4125 19.4125C19.0208 19.8042 18.55 20 18 20H16ZM6 20C5.45 20 4.97917 19.8042 4.5875 19.4125C4.19583 19.0208 4 18.55 4 18V6C4 5.45 4.19583 4.97917 4.5875 4.5875C4.97917 4.19583 5.45 4 6 4H8C8.28333 4 8.52083 4.09583 8.7125 4.2875C8.90417 4.47917 9 4.71667 9 5C9 5.28333 8.90417 5.52083 8.7125 5.7125C8.52083 5.90417 8.28333 6 8 6H6V18H8C8.28333 18 8.52083 18.0958 8.7125 18.2875C8.90417 18.4792 9 18.7167 9 19C9 19.2833 8.90417 19.5208 8.7125 19.7125C8.52083 19.9042 8.28333 20 8 20H6Z" fill="#A674EC"/>
</svg>
