<svg width="43" height="38" viewBox="0 0 43 38" fill="none" xmlns="http://www.w3.org/2000/svg">
    <g filter="url(#filter0_d_91_4212)">
        <path d="M4 15C4 19.3392 4.07308 22.5 4.15462 24.6738C4.26154 27.5046 6.48615 29.7092 9.30923 29.8138C11.8638 29.9077 15.7723 30 21.3077 30C26.8431 30 30.7515 29.9077 33.3062 29.8138C36.1292 29.7092 38.3539 27.5054 38.46 24.6731C38.5423 22.5 38.6154 19.3392 38.6154 15C38.6154 10.6608 38.5423 7.5 38.4608 5.32692C38.3538 2.49462 36.1292 0.290769 33.3062 0.186154C30.7515 0.0923078 26.8423 0 21.3077 0C15.7731 0 11.8638 0.0923078 9.30923 0.186154C6.48615 0.290769 4.26154 2.49462 4.15538 5.32692C4.07231 7.5 4 10.6608 4 15Z" fill="#C7D7FE"/>
        <path d="M26 10L16 20M16 10L26 20" stroke="#3538CD" stroke-width="2" stroke-linecap="round" stroke-linejoin="round"/>
    </g>
    <defs>
        <filter id="filter0_d_91_4212" x="0" y="0" width="42.6154" height="38" filterUnits="userSpaceOnUse" color-interpolation-filters="sRGB">
            <feFlood flood-opacity="0" result="BackgroundImageFix"/>
            <feColorMatrix in="SourceAlpha" type="matrix" values="0 0 0 0 0 0 0 0 0 0 0 0 0 0 0 0 0 0 127 0" result="hardAlpha"/>
            <feOffset dy="4"/>
            <feGaussianBlur stdDeviation="2"/>
            <feComposite in2="hardAlpha" operator="out"/>
            <feColorMatrix type="matrix" values="0 0 0 0 0.0424371 0 0 0 0 0.0865844 0 0 0 0 0.173077 0 0 0 0.12 0"/>
            <feBlend mode="normal" in2="BackgroundImageFix" result="effect1_dropShadow_91_4212"/>
            <feBlend mode="normal" in="SourceGraphic" in2="effect1_dropShadow_91_4212" result="shape"/>
        </filter>
    </defs>
</svg>