<svg width="43" height="38" viewBox="0 0 43 38" fill="none" xmlns="http://www.w3.org/2000/svg">
    <g filter="url(#filter0_d_91_4220)">
        <path d="M4 15C4 19.3392 4.07308 22.5 4.15462 24.6738C4.26154 27.5046 6.48615 29.7092 9.30923 29.8138C11.8638 29.9077 15.7723 30 21.3077 30C26.8431 30 30.7515 29.9077 33.3062 29.8138C36.1292 29.7092 38.3539 27.5054 38.46 24.6731C38.5423 22.5 38.6154 19.3392 38.6154 15C38.6154 10.6608 38.5423 7.5 38.4608 5.32692C38.3538 2.49462 36.1292 0.290769 33.3062 0.186154C30.7515 0.0923078 26.8423 0 21.3077 0C15.7731 0 11.8638 0.0923078 9.30923 0.186154C6.48615 0.290769 4.26154 2.49462 4.15538 5.32692C4.07231 7.5 4 10.6608 4 15Z" fill="#C7D7FE"/>
        <path d="M27.4614 0.0423889V29.9578C29.4101 29.931 31.3584 29.8828 33.306 29.8132C36.1291 29.7093 38.3537 27.5055 38.4599 24.6732C38.5422 22.5001 38.6153 19.3393 38.6153 15.0001C38.6153 10.6609 38.5422 7.50008 38.4607 5.32624C38.3537 2.4947 36.1291 0.290851 33.3053 0.186235C31.8283 0.13162 29.8976 0.0777735 27.4614 0.0423889Z" fill="#3538CD"/>
        <path fill-rule="evenodd" clip-rule="evenodd" d="M35.1537 5.7692C35.1537 5.46318 35.0322 5.1697 34.8158 4.95331C34.5994 4.73692 34.3059 4.61536 33.9999 4.61536H31.6922C31.3862 4.61536 31.0927 4.73692 30.8763 4.95331C30.6599 5.1697 30.5383 5.46318 30.5383 5.7692C30.5383 6.07522 30.6599 6.36871 30.8763 6.5851C31.0927 6.80148 31.3862 6.92305 31.6922 6.92305H33.9999C34.3059 6.92305 34.5994 6.80148 34.8158 6.5851C35.0322 6.36871 35.1537 6.07522 35.1537 5.7692ZM35.1537 11.1538C35.1537 10.8478 35.0322 10.5543 34.8158 10.3379C34.5994 10.1215 34.3059 9.99997 33.9999 9.99997H31.6922C31.3862 9.99997 31.0927 10.1215 30.8763 10.3379C30.6599 10.5543 30.5383 10.8478 30.5383 11.1538C30.5383 11.4598 30.6599 11.7533 30.8763 11.9697C31.0927 12.1861 31.3862 12.3077 31.6922 12.3077H33.9999C34.3059 12.3077 34.5994 12.1861 34.8158 11.9697C35.0322 11.7533 35.1537 11.4598 35.1537 11.1538ZM35.1537 16.5384C35.1537 16.2324 35.0322 15.9389 34.8158 15.7225C34.5994 15.5062 34.3059 15.3846 33.9999 15.3846H31.6922C31.3862 15.3846 31.0927 15.5062 30.8763 15.7225C30.6599 15.9389 30.5383 16.2324 30.5383 16.5384C30.5383 16.8445 30.6599 17.1379 30.8763 17.3543C31.0927 17.5707 31.3862 17.6923 31.6922 17.6923H33.9999C34.3059 17.6923 34.5994 17.5707 34.8158 17.3543C35.0322 17.1379 35.1537 16.8445 35.1537 16.5384Z" fill="#C7D7FE"/>
    </g>
    <defs>
        <filter id="filter0_d_91_4220" x="0" y="0" width="42.6154" height="38" filterUnits="userSpaceOnUse" color-interpolation-filters="sRGB">
            <feFlood flood-opacity="0" result="BackgroundImageFix"/>
            <feColorMatrix in="SourceAlpha" type="matrix" values="0 0 0 0 0 0 0 0 0 0 0 0 0 0 0 0 0 0 127 0" result="hardAlpha"/>
            <feOffset dy="4"/>
            <feGaussianBlur stdDeviation="2"/>
            <feComposite in2="hardAlpha" operator="out"/>
            <feColorMatrix type="matrix" values="0 0 0 0 0.0424371 0 0 0 0 0.0865844 0 0 0 0 0.173077 0 0 0 0.12 0"/>
            <feBlend mode="normal" in2="BackgroundImageFix" result="effect1_dropShadow_91_4220"/>
            <feBlend mode="normal" in="SourceGraphic" in2="effect1_dropShadow_91_4220" result="shape"/>
        </filter>
    </defs>
</svg>